<svg xmlns="http://www.w3.org/2000/svg" viewBox="0 0 2560 1600" width="2560" height="1600">
  <defs>
    <linearGradient id="sky" x1="0" y1="0" x2="0.35" y2="1">
      <stop offset="0" stop-color="#dce8fb"/>
      <stop offset="1" stop-color="#f6efe8"/>
    </linearGradient>
    <radialGradient id="glow" cx="0.72" cy="0.28" r="0.55">
      <stop offset="0" stop-color="#ffffff" stop-opacity="0.55"/>
      <stop offset="1" stop-color="#ffffff" stop-opacity="0"/>
    </radialGradient>
    <linearGradient id="l0" x1="0" y1="0" x2="1" y2="1">
      <stop offset="0" stop-color="#a9c8f5"/>
      <stop offset="1" stop-color="#c9dcf8"/>
    </linearGradient>
    <linearGradient id="l1" x1="0" y1="0" x2="1" y2="1">
      <stop offset="0" stop-color="#7fa9ec"/>
      <stop offset="1" stop-color="#b3cdf3"/>
    </linearGradient>
    <linearGradient id="l2" x1="0" y1="0" x2="1" y2="1">
      <stop offset="0" stop-color="#4f86dd"/>
      <stop offset="1" stop-color="#8fb5ee"/>
    </linearGradient>
  </defs>
  <rect width="2560" height="1600" fill="url(#sky)"/>
  <rect width="2560" height="1600" fill="url(#glow)"/>
  <path d="M0 930 C 420 780, 820 1010, 1280 900 S 2140 700, 2560 820 L 2560 1600 L 0 1600 Z" fill="url(#l0)"/>
  <path d="M0 1110 C 520 980, 900 1180, 1420 1080 S 2200 930, 2560 1030 L 2560 1600 L 0 1600 Z" fill="url(#l1)"/>
  <path d="M0 1320 C 600 1210, 1100 1400, 1640 1300 S 2300 1200, 2560 1260 L 2560 1600 L 0 1600 Z" fill="url(#l2)"/>
</svg>
